<?xml version="1.0" standalone="no"?><!DOCTYPE svg PUBLIC "-//W3C//DTD SVG 1.1//EN" "http://www.w3.org/Graphics/SVG/1.1/DTD/svg11.dtd"><svg t="1634659181200" class="icon" viewBox="0 0 1024 1024" version="1.1" xmlns="http://www.w3.org/2000/svg" p-id="5544" xmlns:xlink="http://www.w3.org/1999/xlink" width="200" height="200"><defs><style type="text/css"></style></defs><path d="M397.824 859.648c57.856-8.192 109.056-38.4 143.872-84.992 34.816-46.592 49.152-103.936 40.96-161.28v-4.096c-0.512-6.656-3.584-12.8-8.704-16.896-5.12-4.096-12.288-6.656-18.944-5.632l-3.584 0.512h-1.536l-6.144 1.024c-7.168 1.024-13.312 5.632-16.896 11.776-3.584 6.144-4.608 13.824-2.048 20.992 0.512 1.024 0.512 1.536 0.512 2.56 12.8 85.504-48.128 166.4-135.68 180.736-87.552 13.824-170.496-46.08-184.832-133.12-6.656-40.96 3.072-82.432 28.16-116.224 25.6-35.328 64-58.88 108.032-66.048 2.048-0.512 3.584-1.024 5.632-1.024 6.656-1.024 12.288-4.608 16.384-10.24 4.096-5.632 5.632-12.288 4.096-18.944l-0.512-1.536V454.144c-1.024-7.168-4.608-13.824-10.752-17.92-6.144-4.096-13.312-5.12-20.48-3.072-0.512 0-0.512 0-1.024 0.512C276.48 442.368 225.28 472.576 190.464 519.168c-34.816 46.592-49.152 103.936-40.96 161.792 8.192 56.832 38.4 107.52 84.992 141.312 37.376 27.648 81.92 41.984 128 41.984 11.264-1.536 23.04-2.56 35.328-4.608z" p-id="5545" fill="#ffffff"></path><path d="M62.464 692.736C51.2 612.352 71.168 532.48 119.296 466.944c48.128-65.024 118.784-108.032 199.168-120.832h1.024c1.024-0.512 2.048-0.512 2.56-0.512 14.336-3.072 23.04-16.384 20.48-30.208v-0.512-2.048c-1.536-13.824-13.824-24.064-27.648-22.528H312.32c-1.024 0-2.048 0-3.072 0.512C111.104 320.512-25.088 503.808 4.096 698.88c10.752 69.12 42.496 134.656 92.16 189.44 5.12 5.632 11.776 8.192 18.944 8.192 5.12 0 10.752-1.536 15.36-5.12l5.12-3.584c5.632-4.608 9.728-11.264 10.24-18.432 0.512-7.168-2.048-14.336-6.656-19.456-41.984-44.032-69.12-99.84-76.8-157.184zM696.32 501.76c-3.584-7.68-10.24-13.824-18.432-15.872-8.192-2.56-17.408-1.024-24.576 3.584l2.56 4.096-2.56-4.096c-12.288 8.192-16.896 23.552-11.264 36.864 11.776 26.112 18.944 50.176 22.016 74.24 12.288 77.312-6.656 155.648-53.248 220.16-48.64 67.072-120.832 111.104-202.752 123.904-29.184 3.584-56.832 4.096-81.92 1.536-15.872-2.048-30.208 8.704-32.768 24.576l-3.072 19.456v7.168l4.096 1.024c24.064 4.608 47.616 6.656 70.144 6.656 17.92 0 35.328-1.536 52.224-4.608 96.256-14.336 181.248-65.024 239.104-143.36 56.832-76.8 80.384-171.008 66.56-265.216-5.632-34.816-14.336-64-26.112-90.112z" p-id="5546" fill="#ffffff"></path><path d="M997.888 43.008c-43.52-30.72-123.392-46.08-256.512 55.296-180.736 135.168-322.048 372.736-374.272 468.992-1.024 2.048-2.048 4.096-2.56 4.608 0 0.512-0.512 1.024-0.512 1.024-6.656 12.8-1.536 28.672 10.752 35.84l2.048 1.024c4.096 2.56 8.704 3.584 13.312 3.584 9.216 0 17.92-4.608 23.04-12.8l0.512-1.024c0.512-0.512 0.512-1.024 1.024-1.536 3.584-7.168 38.4-70.144 91.648-150.528 90.112 37.376 171.008 38.912 241.152 3.584 74.24-39.424 113.664-112.64 133.632-167.936 2.048-5.12 6.144-9.216 11.776-10.752 70.656-19.456 112.128-81.92 127.488-133.632 9.728-42.496 1.536-78.848-22.528-95.744z m-141.312 179.712h-0.512c-11.776 1.536-21.504 11.264-23.04 23.04v1.024c-1.024 4.608-27.648 113.664-112.64 157.696-46.592 23.04-101.376 25.088-163.328 5.12-5.12-1.536-9.216-5.632-10.752-10.752-1.536-5.12-1.024-10.752 2.56-15.36 73.728-100.352 151.04-183.296 222.72-240.64 30.72-23.552 96.768-68.608 150.016-68.608 15.36 0 29.696 3.584 41.984 13.312 4.096 2.56 7.68 15.872 0.512 39.936-12.288 43.008-50.176 88.576-107.52 95.232z" p-id="5547" fill="#ffffff"></path></svg>