<?xml version="1.0" standalone="no"?><!DOCTYPE svg PUBLIC "-//W3C//DTD SVG 1.1//EN" "http://www.w3.org/Graphics/SVG/1.1/DTD/svg11.dtd"><svg t="1634658765972" class="icon" viewBox="0 0 1024 1024" version="1.1" xmlns="http://www.w3.org/2000/svg" p-id="3364" xmlns:xlink="http://www.w3.org/1999/xlink" width="200" height="200"><defs><style type="text/css"></style></defs><path d="M960.146286 365.538743l-438.857143-146.826972a29.052343 29.052343 0 0 0-18.578286 0l-438.857143 146.826972a29.271771 29.271771 0 0 0 0.848457 55.764114l119.369143 35.957029v96.943543c0 7.285029 5.895314 14.321371 10.810515 19.719314 2.706286 2.9696 20.260571 18.139429 37.288228 25.088 3.627886 1.492114 7.358171 2.179657 11.044572 2.179657 11.541943 0 20.8896-6.890057 25.512228-18.2272 6.100114-14.9504-2.677029-32.021943-17.627428-38.122057-1.360457-0.555886 6.114743-1.8432-8.513829-3.423086v-66.340571l43.885714 13.458285v235.944229A43.710171 43.710171 0 0 0 263.314286 762.923886a43.885714 43.885714 0 0 0 87.771428 0c0-8.045714-2.325943-15.491657-6.100114-21.957486v-234.496l56.437029 17.3056 102.4 29.7984a28.862171 28.862171 0 0 0 16.618057-0.073143l234.144914-70.538971v65.316571c-14.628571 17.846857-95.568457 64.980114-252.884114 64.980114-35.357257 0-62.025143-1.696914-88.064-5.207771a29.344914 29.344914 0 0 0-32.899657 25.102629 29.257143 29.257143 0 0 0 25.088 32.899657c28.642743 3.861943 61.045029 5.7344 99.035428 5.7344 221.754514 0 300.368457-86.864457 303.733029-90.550857 4.9152-5.383314 4.490971-12.419657 4.490971-19.719315v-92.8768c0-1.097143-0.2048-2.135771-0.321828-3.203657L959.297829 421.302857a29.271771 29.271771 0 0 0 0.848457-55.764114zM511.853714 494.972343l-93.681371-27.253029-37.010286-11.351771 144.632686-50.731886c15.228343-5.412571 25.951086-22.162286 20.523886-37.376-5.4272-15.228343-22.981486-23.171657-38.180572-17.744457L309.087086 420.864a38.136686 38.136686 0 0 0-14.072686 9.084343l-68.739657-21.079772-56.539429-17.027657L512 277.313829l342.264686 114.512457-342.410972 103.146057z" fill="#ffffff" p-id="3365"></path><path d="M594.066286 445.908114a14.584686 14.584686 0 0 0 4.227657-0.629028L668.189257 424.228571a14.599314 14.599314 0 0 0 9.786514-18.212571 14.555429 14.555429 0 0 0-18.212571-9.786514l-69.895314 21.050514a14.628571 14.628571 0 0 0 4.1984 28.628114zM715.146971 410.682514a14.570057 14.570057 0 0 0 4.213029-0.629028l32.577829-9.815772a14.599314 14.599314 0 0 0 9.786514-18.212571 14.570057 14.570057 0 0 0-18.212572-9.786514l-32.577828 9.815771a14.599314 14.599314 0 0 0 4.213028 28.628114z" fill="#ffffff" p-id="3366"></path></svg>