<?xml version="1.0" standalone="no"?><!DOCTYPE svg PUBLIC "-//W3C//DTD SVG 1.1//EN" "http://www.w3.org/Graphics/SVG/1.1/DTD/svg11.dtd"><svg t="1635689276712" class="icon" viewBox="0 0 1024 1024" version="1.1" xmlns="http://www.w3.org/2000/svg" p-id="19211" xmlns:xlink="http://www.w3.org/1999/xlink" width="128" height="128"><defs><style type="text/css"></style></defs><path d="M512 85.333333c235.648 0 426.666667 191.018667 426.666667 426.666667 0 187.733333-121.216 347.136-289.664 404.181333l-9.642667 3.157334-123.904-322.133334A86.016 86.016 0 0 0 597.333333 512a85.333333 85.333333 0 1 0-88.874666 85.248l-123.861334 322.090667-9.6-3.157334A426.709333 426.709333 0 0 1 85.333333 512C85.333333 276.352 276.352 85.333333 512 85.333333z m0 85.333334a341.333333 341.333333 0 0 0-174.890667 634.538666l63.146667-164.224A170.624 170.624 0 0 1 512 341.333333a170.624 170.624 0 0 1 111.786667 299.648c24.106667 62.890667 45.184 117.632 63.104 164.266667A341.333333 341.333333 0 0 0 512 170.666667z" p-id="19212" fill="#ffffff"></path></svg>