<?xml version="1.0" standalone="no"?><!DOCTYPE svg PUBLIC "-//W3C//DTD SVG 1.1//EN" "http://www.w3.org/Graphics/SVG/1.1/DTD/svg11.dtd"><svg t="1635688239210" class="icon" viewBox="0 0 1024 1024" version="1.1" xmlns="http://www.w3.org/2000/svg" p-id="15247" xmlns:xlink="http://www.w3.org/1999/xlink" width="128" height="128"><defs><style type="text/css"></style></defs><path d="M544.76 482.454C367.59 498.872 185.048 536.716 1 548.652c27.962-28.628 85.342-24.944 137.124-33.094 90.956-14.322 205.29-24.004 307.338-37.836 32.928-4.458 75.876-22.258 99.298 4.732z m-174.95 66.196c-59.318 6.736-109.502 10.096-160.76 14.188-34.782 2.78-72.624-4.324-94.574 18.914 72.566 19.752 160.884-12.492 236.42-9.458 10.372-8.584 125.712 10.13 174.948-33.094-40.36-25.598-98.312 2.896-156.034 9.45z m529.57 66.204c-46.426 40.928-69.664 71.76-137.124 56.738-21.674-21.276-19.078-58.02-18.912-61.47 1.064-21.858 15.344-49.18 14.18-70.92-10.43 36.886-71.178 48.54-70.92 80.376-47.962 32.42-87.694 73.074-174.948 66.196-46.15-57.212 23.562-152.418 61.472-198.586 16.842-20.526 33.742-42.176 52.006-61.47 40.014-42.268 45.91-56.58 99.296-80.384 80.484-35.862 112.838 59.668 61.462 108.754-19.71 5.034-20.85 1.23-42.548 0 19.436-19.196 15.07-56.804 23.636-75.65-0.524-8.934-15.628-3.278-14.182-14.19-76.858 31.264-126.444 88.144-170.214 156.044-18.44 28.594-38.684 56.996-42.558 104.012 0.524 8.934 15.626 3.286 14.188 14.19 5.232 0.15 10.198 0.034 14.97-0.284v-0.108h1.722c76.618-5.948 95.712-69.422 139.336-108.364-29.768-13.382-60.564 28.196-89.834 4.732 24.704-46.816 94.49-31.148 156.03-47.284 4.888 15.438 11.984 10.024 0 23.636 64.232-46.508 100.486-185.8 236.42-160.76 40.496 106.4-49.086 208.01-113.478 264.792z m80.376-226.966c-91.486 19.196-175.772 117.978-203.316 231.688 61.17 19.312 100.444-50.026 146.578-75.65 26.954-40.638 77.358-98.176 56.738-156.038z" fill="#ffffff" p-id="15248"></path></svg>