<?xml version="1.0" standalone="no"?><!DOCTYPE svg PUBLIC "-//W3C//DTD SVG 1.1//EN" "http://www.w3.org/Graphics/SVG/1.1/DTD/svg11.dtd"><svg t="1635688567062" class="icon" viewBox="0 0 1024 1024" version="1.1" xmlns="http://www.w3.org/2000/svg" p-id="17501" xmlns:xlink="http://www.w3.org/1999/xlink" width="128" height="128"><defs><style type="text/css"></style></defs><path d="M613.58 807.2a25.68 25.68 0 1 0-25.67-25.68 25.68 25.68 0 0 0 25.67 25.68zM410.58 217.5a25.68 25.68 0 0 0-25.7 25.65 25.68 25.68 0 0 0 51.36 0.05v-0.05a25.68 25.68 0 0 0-25.66-25.65z" p-id="17502" fill="#ffffff"></path><path d="M729 294.5v-173h-64v0.5H359v-0.5h-64v174H128v434h167v173h434v-174h167v-434zM295 595.35v70.15H192v-306h244.5v-64H359V186h306v226.91a62.18 62.18 0 0 1-61.78 55.83v0.26H421.5v0.71l-0.47-0.45a126.23 126.23 0 0 0-126.09 126.09z m537 69.15H587.49v64H665v110H359V595a62.16 62.16 0 0 1 62-61.74l0.47-0.54v0.28h198v-1.31A126.36 126.36 0 0 0 728 425h1v-9.51c0.2-2.92 0.31-5.87 0.31-8.84H729V358.5h103z" p-id="17503" fill="#ffffff"></path></svg>