<?xml version="1.0" standalone="no"?><!DOCTYPE svg PUBLIC "-//W3C//DTD SVG 1.1//EN" "http://www.w3.org/Graphics/SVG/1.1/DTD/svg11.dtd"><svg t="1634658477673" class="icon" viewBox="0 0 1024 1024" version="1.1" xmlns="http://www.w3.org/2000/svg" p-id="1731" xmlns:xlink="http://www.w3.org/1999/xlink" width="200" height="200"><defs><style type="text/css"></style></defs><path d="M556.630988 243.88252c-123.294071 0-223.290529 100.038414-223.290529 223.418442 0 47.120181 14.745842 90.660836 39.527249 126.696564l-128.96421 96.680946 89.436962 89.307002 96.680946-128.876206c36.037774 24.867364 79.57843 39.569204 126.610606 39.569204 123.380028 0 223.376487-99.996458 223.376487-223.37751C780.007475 343.920934 680.011017 243.88252 556.630988 243.88252zM556.630988 601.372493c-73.994248 0-134.027529-60.077284-134.027529-134.071532 0-74.036203 60.033281-133.981481 134.027529-133.981481 74.080206 0 134.025483 59.945277 134.025483 133.981481C690.656471 541.29521 630.711194 601.372493 556.630988 601.372493zM780.007475 65.267493 243.903497 65.267493c-98.599645 0-178.61298 79.969333-178.61298 178.615027l0 536.102954c0 98.730629 80.013335 178.744987 178.61298 178.744987l536.105001 0c98.772584 0 178.700985-80.013335 178.700985-178.744987L958.709483 243.88252C958.70846 145.236825 878.781082 65.267493 780.007475 65.267493zM869.44546 735.353974c0 73.994248-60.119239 134.069485-134.113487 134.069485L288.578999 869.423459c-73.994248 0-134.027529-60.075237-134.027529-134.069485L154.55147 288.643979c0-74.080206 60.033281-134.069485 134.027529-134.069485l446.752973 0c73.994248 0 134.113487 59.989279 134.113487 134.069485L869.44546 735.353974z" p-id="1732" fill="#ffffff"></path></svg>